<?xml version="1.0" standalone="no"?>
<!DOCTYPE svg PUBLIC "-//W3C//DTD SVG 20010904//EN"
 "http://www.w3.org/TR/2001/REC-SVG-20010904/DTD/svg10.dtd">
<svg version="1.0" xmlns="http://www.w3.org/2000/svg"
 width="500.000000pt" height="500.000000pt" viewBox="0 0 500.000000 500.000000"
 preserveAspectRatio="xMidYMid meet">

<g transform="translate(0.000000,500.000000) scale(0.100000,-0.100000)"
fill="#000000" stroke="none">
<path d="M2295 4794 c-86 -9 -294 -47 -380 -69 -285 -75 -582 -222 -835 -415
-285 -218 -548 -559 -693 -901 -402 -945 -140 -2029 650 -2686 169 -140 459
-305 686 -388 484 -177 1070 -177 1554 0 792 291 1352 964 1494 1795 19 113
23 172 24 360 0 237 -8 321 -51 517 -20 92 -23 120 -15 150 14 50 14 208 0
275 -37 178 -174 349 -349 438 -38 19 -68 45 -95 81 -60 81 -269 287 -361 356
-265 201 -569 351 -854 422 -194 48 -308 62 -525 66 -115 1 -228 1 -250 -1z
m410 -434 c382 -44 759 -210 1029 -452 l58 -53 -55 -38 c-55 -38 -112 -95
-153 -151 l-21 -29 -64 52 c-197 160 -390 258 -619 316 -143 35 -224 45 -380
45 -321 0 -599 -83 -860 -258 -365 -245 -611 -629 -675 -1054 -19 -123 -19
-355 -1 -473 77 -502 392 -929 855 -1160 419 -209 943 -209 1362 0 320 159
582 425 723 731 104 224 146 414 146 665 l0 146 88 6 c48 3 116 14 152 26 35
11 67 18 70 15 3 -3 5 -96 5 -207 -1 -240 -20 -361 -90 -574 -215 -654 -769
-1134 -1448 -1255 -176 -32 -479 -31 -657 0 -537 96 -1007 424 -1287 900 -103
175 -184 395 -225 609 -30 159 -32 494 -4 648 110 602 484 1100 1021 1365 174
85 416 157 608 179 104 12 318 12 422 1z m0 -444 c284 -44 543 -165 754 -353
l45 -39 -19 -65 c-12 -45 -18 -97 -18 -174 1 -97 4 -122 30 -197 55 -158 156
-279 305 -362 35 -19 75 -38 90 -41 34 -9 38 -25 38 -180 0 -239 -51 -450
-157 -657 l-45 -88 -82 0 c-44 0 -98 3 -118 6 l-38 7 43 27 c121 76 185 223
157 363 -27 138 -119 251 -245 298 l-30 11 25 10 25 11 -25 7 c-44 14 -188 11
-225 -4 l-34 -15 -31 55 c-17 30 -33 67 -35 84 -3 25 0 31 21 36 38 10 171 -1
188 -15 13 -11 113 -40 140 -41 16 0 -28 42 -69 66 -23 13 -61 30 -85 39 -81
28 -76 25 -60 35 12 7 9 20 -18 72 -43 83 -56 128 -36 128 8 0 14 2 14 5 0 2
-29 51 -64 108 -35 56 -76 127 -91 157 -25 50 -28 53 -41 35 -22 -30 -17 -51
31 -121 48 -70 52 -79 33 -87 -7 -3 -24 -26 -38 -51 l-25 -47 25 -19 c25 -19
25 -19 5 -34 -11 -9 -22 -16 -25 -16 -11 0 -90 91 -90 104 0 31 -12 46 -34 40
-20 -5 -23 1 -35 68 -24 131 -54 178 -81 128 -17 -32 -8 -73 19 -87 29 -14 36
-26 45 -77 7 -37 6 -38 -16 -33 -13 4 -30 2 -37 -3 -10 -5 -22 -3 -35 6 -11 8
-30 14 -41 14 -11 0 -26 9 -32 20 -7 10 -30 24 -52 30 -56 15 -107 71 -122
134 -6 28 -16 59 -21 69 -7 14 -3 19 18 27 22 9 24 13 14 25 -17 20 2 20 41
-1 41 -21 54 -14 74 40 18 48 14 82 -9 73 -18 -7 -31 24 -15 34 6 4 10 22 7
41 l-3 34 52 0 c90 0 82 15 -37 74 -117 58 -167 66 -240 42 -81 -27 -123 -174
-64 -221 15 -12 21 -21 15 -21 -15 0 -41 -25 -41 -38 0 -5 -18 -12 -39 -16
-31 -5 -54 -20 -107 -72 -87 -86 -103 -128 -105 -267 -1 -117 7 -140 52 -156
25 -9 29 -14 20 -24 -6 -8 -14 -35 -17 -60 -5 -37 -3 -51 16 -77 12 -17 20
-34 17 -37 -3 -3 -24 -2 -47 2 -27 5 -57 21 -92 51 -29 24 -57 44 -64 44 -45
0 -310 33 -314 39 -7 10 -149 33 -161 26 -24 -15 -6 -34 39 -41 26 -4 39 -10
29 -12 -21 -4 -16 -45 9 -73 24 -26 9 -39 -46 -39 -26 0 -55 -3 -64 -6 -26
-10 -18 -31 14 -37 32 -7 40 -31 15 -41 -9 -3 -28 -32 -42 -63 -40 -90 -44
-105 -32 -97 8 4 9 -1 5 -17 -6 -22 -5 -22 19 6 14 17 53 67 88 112 61 80 106
113 156 113 10 0 56 -19 103 -43 79 -39 84 -44 75 -65 -12 -27 -21 -27 -56 -3
-29 21 -115 31 -130 16 -5 -6 -14 -27 -21 -49 -11 -34 -10 -41 8 -66 l21 -28
-30 -12 c-50 -21 -118 -96 -152 -168 -28 -59 -32 -77 -32 -152 1 -64 6 -96 21
-131 27 -57 77 -115 132 -150 l43 -27 -58 -6 c-32 -3 -112 -7 -177 -8 l-119
-3 -39 70 c-120 220 -175 462 -165 729 8 221 55 404 149 589 185 362 501 622
889 733 182 52 412 68 594 40z m1500 -151 c162 -21 328 -181 370 -356 49 -210
-33 -411 -217 -530 -88 -56 -152 -72 -278 -67 -92 3 -113 7 -170 34 -138 65
-230 169 -272 307 -17 56 -20 87 -16 166 4 84 9 106 41 174 70 150 208 256
362 275 69 9 81 9 180 -3z m-1625 -820 c0 2 15 -2 33 -10 18 -7 39 -10 46 -6
18 11 111 -7 147 -30 17 -10 40 -19 52 -19 16 0 52 -37 52 -54 0 -3 -35 11
-77 30 -67 31 -85 35 -127 30 -43 -5 -57 -12 -103 -58 -30 -29 -57 -53 -61
-52 -4 1 -16 -5 -27 -12 -27 -18 -69 -7 -59 15 4 9 8 30 9 48 1 17 8 45 15 62
7 17 10 44 7 61 l-6 29 49 -19 c28 -11 50 -18 50 -15z m415 -94 c-6 -5 -44 41
-44 54 0 6 11 -3 24 -20 13 -16 22 -31 20 -34z m-1398 -74 c4 -7 0 -8 -11 -4
-10 4 -22 7 -27 7 -5 0 -9 4 -9 9 0 12 38 2 47 -12z m119 -24 c-7 -7 -76 8
-76 17 0 4 18 3 40 -2 23 -6 39 -13 36 -15z m1366 -243 l26 -45 -24 -30 c-21
-26 -25 -28 -38 -15 -9 9 -15 39 -16 75 -3 89 -3 92 13 75 8 -8 25 -35 39 -60z
m-65 -35 c-4 -29 -2 -48 9 -63 14 -20 13 -25 -14 -64 -28 -40 -51 -96 -66
-160 -6 -28 2 -36 20 -19 5 6 9 -18 9 -67 0 -66 5 -87 32 -144 34 -72 92 -137
149 -166 l37 -19 -79 -6 c-50 -4 -116 0 -179 9 -118 18 -118 18 -219 4 -53 -7
-98 -7 -140 0 -69 11 -179 12 -216 1 -14 -4 -38 -4 -55 1 -90 26 -123 28 -167
8 -44 -20 -137 -25 -188 -11 -24 7 -24 7 12 29 43 27 82 76 109 138 l20 45 83
-2 c46 -1 87 1 92 4 18 11 130 10 157 -1 44 -19 242 -15 283 4 43 21 114 100
114 128 0 12 9 35 20 51 26 39 26 95 -1 129 -27 34 -15 52 18 26 l25 -20 44
43 c24 23 44 51 44 63 0 35 31 114 42 108 6 -4 8 -24 5 -49z m-1072 15 c17
-11 37 -20 46 -20 8 0 30 -15 48 -34 28 -29 31 -37 22 -54 -10 -18 -15 -19
-40 -11 -17 6 -36 21 -45 33 -8 13 -35 37 -60 53 -34 23 -42 33 -33 42 16 16
27 14 62 -9z m166 -145 c21 -7 24 -22 10 -44 -16 -25 -41 6 -40 48 1 20 3 28
6 19 2 -9 13 -20 24 -23z m1279 19 c54 -11 101 -36 95 -52 -3 -7 0 -10 6 -7
14 9 52 -31 76 -80 19 -37 36 -139 25 -150 -3 -2 -6 -21 -8 -41 -4 -45 -50
-118 -69 -110 -9 3 -12 0 -9 -8 3 -7 -17 -24 -48 -42 -70 -38 -159 -40 -231
-5 -27 13 -44 27 -40 33 3 6 1 8 -5 4 -14 -8 -44 22 -36 36 4 7 2 8 -4 4 -13
-8 -35 28 -24 39 4 5 2 5 -5 2 -6 -4 -15 5 -22 23 -7 22 -7 30 2 31 9 0 9 2 0
6 -14 5 -19 124 -5 137 4 4 7 13 7 19 0 7 7 12 15 12 11 0 18 -20 27 -75 6
-41 12 -76 12 -77 1 -2 8 -3 16 -3 8 0 15 -4 15 -10 0 -21 2 -25 16 -41 8 -9
11 -19 7 -24 -5 -4 -2 -5 5 -1 7 4 14 1 18 -7 8 -23 76 -40 130 -33 27 4 55 7
62 8 6 1 12 7 12 13 0 6 10 17 23 24 48 26 70 107 46 166 -7 17 -12 33 -11 38
1 4 -3 7 -9 7 -6 0 -9 9 -6 20 3 11 1 17 -4 14 -5 -3 -29 6 -53 20 -24 14 -46
23 -49 19 -4 -3 -13 0 -21 6 -9 7 -17 8 -20 2 -12 -19 -42 -3 -63 35 -12 21
-20 40 -18 43 8 7 79 19 95 15 8 -1 31 -6 50 -10z m-917 -9 c-3 -9 -8 -14 -10
-11 -3 3 -2 9 2 15 9 16 15 13 8 -4z m-642 -71 c8 -8 22 -14 29 -14 7 0 11 -3
8 -6 -4 -3 -57 -7 -120 -10 l-113 -4 29 19 c17 11 33 18 38 15 4 -3 8 -1 8 5
0 23 94 19 121 -5z m337 14 c18 -18 14 -28 -12 -28 -19 0 -23 4 -19 20 6 23
14 25 31 8z m1015 -33 c20 -42 8 -53 -33 -28 -32 19 -39 33 -15 33 8 0 14 3
14 8 -6 35 15 28 34 -13z m-935 -13 c2 -8 -9 -12 -35 -12 -38 1 -38 1 -13 15
28 16 42 15 48 -3z m562 -5 c0 -7 -6 -21 -13 -32 -13 -16 -14 -15 -9 13 4 31
22 46 22 19z m-1129 -27 c20 -16 22 -21 9 -29 -8 -5 -18 -7 -22 -5 -4 3 -8 -2
-8 -11 0 -9 -4 -14 -8 -11 -4 2 -8 -3 -9 -12 -4 -56 -9 -82 -16 -82 -5 0 -1
-7 8 -17 10 -9 15 -26 12 -39 -2 -13 0 -21 5 -18 5 4 20 -4 34 -16 30 -29 138
-39 148 -14 3 8 10 12 16 9 5 -3 10 1 10 9 0 9 1 16 3 17 1 0 23 3 50 6 41 4
46 3 41 -12 -4 -9 -13 -14 -22 -10 -12 4 -12 3 -3 -9 10 -11 4 -21 -31 -49
-52 -42 -100 -58 -154 -53 -81 8 -144 59 -168 136 -16 52 -20 120 -6 120 5 0
7 7 4 15 -9 22 42 95 65 95 10 0 29 -9 42 -20z m1689 -1 c0 -5 4 -8 9 -5 5 3
14 -1 20 -8 7 -8 8 -16 4 -19 -16 -10 -64 6 -74 24 -8 16 -6 19 16 19 14 0 25
-5 25 -11z m-1440 -19 c9 -18 8 -20 -15 -20 -14 0 -28 0 -32 -1 -17 -1 -13 30
4 34 31 8 32 8 43 -13z m1231 -33 c-10 -9 -11 -8 -5 6 3 10 9 15 12 12 3 -3 0
-11 -7 -18z m284 -28 c-5 -6 -13 -3 -22 10 -8 12 -11 26 -8 32 5 6 13 3 22
-10 8 -12 11 -26 8 -32z m15 -29 c0 -6 -7 -26 -14 -45 -11 -25 -19 -33 -31
-29 -14 6 -14 8 0 24 8 9 15 26 15 38 0 13 6 22 15 22 8 0 15 -5 15 -10z
m-1320 -10 c0 -5 0 -13 1 -17 0 -4 -9 -10 -20 -15 -18 -6 -21 -3 -21 17 0 18
5 25 20 25 11 0 20 -4 20 -10z m1100 0 c0 -5 -5 -10 -11 -10 -5 0 -7 5 -4 10
3 6 8 10 11 10 2 0 4 -4 4 -10z m7 -26 c-3 -3 -12 -4 -19 -1 -8 3 -5 6 6 6 11
1 17 -2 13 -5z m-1277 -19 c0 -18 -31 -35 -64 -35 -19 0 -24 4 -19 16 11 29
83 46 83 19z m215 -15 c18 -20 17 -20 -33 -20 -38 0 -52 4 -52 14 0 14 17 22
51 25 9 0 24 -8 34 -19z m458 13 c-7 -2 -19 -2 -25 0 -7 3 -2 5 12 5 14 0 19
-2 13 -5z m618 -8 c-1 -15 -24 -12 -29 3 -3 9 2 13 12 10 10 -1 17 -7 17 -13z
m-791 -5 c12 -8 9 -10 -12 -10 -16 0 -28 5 -28 10 0 13 20 13 40 0z m-759 -17
c13 -16 12 -17 -3 -4 -10 7 -18 15 -18 17 0 8 8 3 21 -13z m1599 -7 c38 -11
49 -12 64 -1 10 8 25 11 33 8 12 -5 10 -9 -8 -19 -44 -24 -139 -13 -139 16 0
12 -4 13 50 -4z m-1533 -22 c-3 -3 -12 -4 -19 -1 -8 3 -5 6 6 6 11 1 17 -2 13
-5z m58 -294 c321 -18 1766 -2 1710 20 -11 4 18 7 67 6 48 0 88 -3 88 -5 0
-16 -128 -171 -198 -240 -147 -144 -286 -235 -475 -310 -581 -231 -1258 -53
-1638 429 -35 45 -72 94 -81 108 l-17 27 162 -11 c89 -6 261 -17 382 -24z"/>
</g>
</svg>
